<svg id="Layer_1" data-name="Layer 1" xmlns="http://www.w3.org/2000/svg" viewBox="0 0 137.11 145.9"><defs><style>.cls-1{fill:#666ccd;}</style></defs><title>bubble2</title><path class="cls-1" d="M186.94,137.73v2h0c1.25,0,2.52,0,3.76.12,16.34,1,28.21,6.76,37.38,18.1,7.95,9.82,14,23.77,20.42,46.63,3.64,13.1,1.24,27.74-6.78,41.22-10.26,17.26-28.43,30.7-47.41,35.08a31.47,31.47,0,0,1-7,.76c-16.22,0-37.1-11-52-27.29-13-14.3-19.45-30.2-18.08-44.77,1.83-19.61,10.19-37.53,23.54-50.45,12.9-12.51,29.29-19.39,46.15-19.4v-2m0,0c-35.17,0-67.72,29.33-71.68,71.66-3.45,36.78,41,74.25,72,74.25a33.6,33.6,0,0,0,7.47-.81c34.64-8,65.17-44.63,55.66-78.79-11.18-40.19-24.37-64-59.59-66.19-1.3-.08-2.6-.12-3.89-.12Z" transform="translate(-115.07 -137.73)"/></svg>