<svg id="Layer_1" data-name="Layer 1" xmlns="http://www.w3.org/2000/svg" viewBox="0 0 247.62 250.66"><defs><style>.cls-1{fill:#666ccd;}</style></defs><title>bubble</title><path class="cls-1" d="M208.14,61.08c28.48,0,53.25,11.89,73.61,35.35,17.48,20.14,31.86,48.85,42.73,85.35a76,76,0,0,1,1.45,38.35,92,92,0,0,1-16,34.64C298.79,270,283.32,283,265.13,292.49c-18.37,9.6-38.18,14.86-57.28,15.23l-2.28,0a128.83,128.83,0,0,1-94-41.61c-20.17-22.24-29.76-50-27-78.11,3.59-36.63,16.38-67.73,37-90,20.42-22,48-34.72,79.66-36.77,2.32-.14,4.65-.22,6.92-.22h0m0-2c-2.32,0-4.66.08-7,.23C135.69,63.52,90,112,82.58,187.82c-6.66,68.05,56.92,121.92,123,121.92l2.32,0C275.23,308.43,346,247,326.4,181.2,306.52,114.47,270.67,59.08,208.14,59.08Z" transform="translate(-82.1 -59.08)"/></svg>