<svg id="Layer_1" data-name="Layer 1" xmlns="http://www.w3.org/2000/svg" viewBox="0 0 136.16 136.2"><defs><style>.cls-1{fill:#666ccd;}</style></defs><title>bubble3</title><path class="cls-1" d="M198.92,143c13.29,0,24.44,5.68,33.15,16.87,8.28,10.63,13.94,26,16.37,44.4s-.65,32.69-9.37,44.06c-9.22,12-25.2,20.65-47.51,25.69a49.71,49.71,0,0,1-10.86,1.18c-14.62,0-29.56-6.05-41-16.61-9.2-8.49-20.55-23.94-22.46-49.38C114.72,175.46,139,153.5,189.37,144a52.17,52.17,0,0,1,9.55-.94h0m0-2a54.12,54.12,0,0,0-9.91,1c-37,7-77,24-73.74,67.39,3.35,44.74,36.41,67.84,65.44,67.84A51.49,51.49,0,0,0,192,276c47.07-10.63,63.19-35.85,58.42-72-4.88-37-22.67-63-51.51-63Z" transform="translate(-115.07 -141.03)"/></svg>