<?xml version="1.0" encoding="utf-8"?>
<!-- Generator: Adobe Illustrator 23.1.0, SVG Export Plug-In . SVG Version: 6.00 Build 0)  -->
<svg version="1.1" id="Layer_1" xmlns="http://www.w3.org/2000/svg" xmlns:xlink="http://www.w3.org/1999/xlink" x="0px" y="0px"
	 viewBox="0 0 369.8 230.7" style="enable-background:new 0 0 369.8 230.7;" xml:space="preserve">
<style type="text/css">
	.st0{fill:none;}
	.st1{fill:#666CCD;}
</style>
<title>info_bubble</title>
<path class="st0" d="M169.7,230.2c-48.6,0-116.9-13.5-149.7-51.6C4,160-2.2,137.4,1.6,111.2C7,74.9,46.4,47,69.5,33.5
	c34.4-20.1,75.3-33,104-33c1.9,0,3.8,0.1,5.6,0.2c53.1,3.5,137.4,39.1,173.6,84.8c13.3,16.7,18.6,33.1,16,48.6
	c-9.4,55.7-94.2,76.2-134.9,86c-7.6,1.9-13.7,3.3-17.8,4.6C205,228.2,188.5,230.2,169.7,230.2z"/>
<path class="st1" d="M173.5,0v1c1.9,0,3.8,0.1,5.5,0.2c53,3.5,137.1,39.1,173.1,84.6c13.2,16.6,18.5,32.9,15.9,48.2
	c-4,23.8-22.5,43.9-55,59.7c-27.3,13.3-58.7,20.9-79.5,25.9c-7.7,1.9-13.7,3.3-17.8,4.6c-10.9,3.5-27.3,5.4-46.1,5.4
	c-27.5,0-56.2-4.1-81-11.5c-30-9-53.6-22.8-68.3-39.9c-16-18.5-22.1-41-18.3-67c2.1-14,9.6-28.2,22.4-42.1
	c11.4-12.4,27-24.6,45.2-35.2c34.4-20,75.1-33,103.8-33L173.5,0 M173.5-0.1C116.4,0,10,51.2,1.1,111.2
	C-12.3,202,97.7,230.7,169.7,230.7c19.2,0,35.7-2,46.4-5.5c26.3-8.4,141.9-24.8,153-91C379.8,70.4,253.5,5,179.1,0.2
	C177.3,0.1,175.4,0,173.5-0.1L173.5-0.1z"/>
</svg>
