<?xml version="1.0" encoding="utf-8"?>
<!-- Generator: Adobe Illustrator 23.1.0, SVG Export Plug-In . SVG Version: 6.00 Build 0)  -->
<svg version="1.1" id="Layer_1" xmlns="http://www.w3.org/2000/svg" xmlns:xlink="http://www.w3.org/1999/xlink" x="0px" y="0px"
	 viewBox="0 0 202.5 234.9" style="enable-background:new 0 0 202.5 234.9;" xml:space="preserve">
<style type="text/css">
	.st0{fill:none;}
	.st1{fill:#666CCD;}
</style>
<title>info_bubble2</title>
<path class="st0" d="M100.3,234.4c-0.6,0-1.3,0-1.9,0c-29.9-0.6-56.3-11.5-74.2-30.8c-16.9-18.2-25-42.8-23.5-71
	c2.1-37.4,10.6-69.2,24.6-92c16.3-26.5,39.1-40,67.9-40c29.5,0,54.1,11,73.2,32.6c29.7,33.5,37.2,84,35.3,99.4
	c-3.7,30.2-15.6,56-34.5,74.5C149.3,224.6,125.3,234.4,100.3,234.4z"/>
<path class="st1" d="M93.2,1C122.5,1,147,11.9,166,33.4c16.4,18.5,25,40.8,29.5,56.3c5.3,18.5,6.7,34.8,5.7,42.7
	c-3.7,30.2-15.6,55.9-34.4,74.2c-17.7,17.5-41.6,27.3-66.6,27.2c-0.6,0-1.3,0-1.9,0c-29.8-0.6-56-11.4-73.8-30.6
	C7.7,185.1-0.4,160.7,1.2,132.6c2-37.3,10.5-69,24.5-91.8C41.9,14.4,64.6,1,93.2,1 M93.2,0C31.2,0,4,63.1,0.2,132.5
	c-3.6,64.6,43.2,101.3,98.1,102.3c0.6,0,1.3,0,1.9,0c51.2,0,94.2-39.3,101.9-102.4C205.2,108,185.7,0,93.2,0z"/>
</svg>
